<svg width="72" height="72" viewBox="0 0 72 72" fill="none" xmlns="http://www.w3.org/2000/svg">
<path d="M71.6557 38.4048L67.4052 31.6666L69.9227 24.1037C70.2668 23.0763 69.8391 21.9416 68.9013 21.4037L62.0275 17.4135L60.769 9.54027C60.5911 8.46495 59.6886 7.66467 58.6201 7.61679L50.6897 7.30611L45.941 0.926179C45.2879 0.0542587 44.1244 -0.232301 43.151 0.233539L35.9924 3.6503L28.8335 0.221298C27.86 -0.244183 26.6965 0.042377 26.0435 0.9143L21.2947 7.29423L13.3762 7.60491C12.2958 7.65279 11.3937 8.45307 11.2273 9.52839L9.96878 17.4016L3.09496 21.3918C2.15716 21.9297 1.72985 23.0644 2.07401 24.0919L4.59112 31.6544L0.352489 38.3929C-0.229268 39.3127 -0.0748282 40.5075 0.697009 41.2722L6.41919 46.7917L5.77804 54.7365C5.69488 55.8237 6.37167 56.8155 7.40451 57.1259L15.0145 59.3363L18.113 66.6839C18.5404 67.6872 19.597 68.2607 20.6536 68.0339L28.418 66.4326L34.5438 71.4863C34.9592 71.8207 35.4697 72 35.9802 72C36.4906 72 37.0011 71.8207 37.4169 71.4863L43.5426 66.4326L51.3071 68.0339C52.3637 68.2607 53.4322 67.6872 53.8476 66.6839L56.9465 59.3363L64.5562 57.1259C65.589 56.8274 66.2777 55.8237 66.1826 54.7365L65.5418 46.7917L71.2636 41.2722C72.0834 40.5194 72.2256 39.3249 71.6557 38.4048ZM52.4112 27.4013L36.5029 51.3792C35.8974 52.2752 34.9714 52.8725 34.0452 52.8725C33.1192 52.8725 32.0864 52.3469 31.4334 51.6899L19.7633 39.7548C18.968 38.9422 18.968 37.6164 19.7633 36.8038L22.6483 33.8529C23.4435 33.0523 24.7377 33.0523 25.533 33.8529L33.1311 41.6185L45.6558 22.7181C46.2851 21.7623 47.5674 21.5232 48.4934 22.1684L51.877 24.5102C52.8029 25.1553 53.0405 26.4574 52.4112 27.4013Z" fill="#092E56"/>
</svg>
